<svg xmlns="http://www.w3.org/2000/svg" viewBox="0 0 600 600" width="600" height="600"><rect width="600" height="600" fill="#fbf3e6"/><defs><clipPath id="ls00"><rect x="-86" y="-70.52" width="172" height="8.34"/></clipPath><clipPath id="ls01"><rect x="-86" y="-62.78" width="172" height="8.34"/></clipPath><clipPath id="ls02"><rect x="-86" y="-55.04" width="172" height="8.34"/></clipPath><clipPath id="ls03"><rect x="-86" y="-47.30" width="172" height="8.34"/></clipPath><clipPath id="ls04"><rect x="-86" y="-39.56" width="172" height="8.34"/></clipPath><clipPath id="ls05"><rect x="-86" y="-31.82" width="172" height="8.34"/></clipPath><clipPath id="ls06"><rect x="-86" y="-24.08" width="172" height="8.34"/></clipPath><clipPath id="ls07"><rect x="-86" y="-16.34" width="172" height="8.34"/></clipPath><clipPath id="ls08"><rect x="-86" y="-8.60" width="172" height="8.34"/></clipPath><clipPath id="ls09"><rect x="-86" y="-0.86" width="172" height="8.34"/></clipPath><clipPath id="ls010"><rect x="-86" y="6.88" width="172" height="8.34"/></clipPath><clipPath id="ls011"><rect x="-86" y="14.62" width="172" height="8.34"/></clipPath><clipPath id="ls10"><rect x="-86" y="-70.52" width="172" height="8.34"/></clipPath><clipPath id="ls11"><rect x="-86" y="-62.78" width="172" height="8.34"/></clipPath><clipPath id="ls12"><rect x="-86" y="-55.04" width="172" height="8.34"/></clipPath><clipPath id="ls13"><rect x="-86" y="-47.30" width="172" height="8.34"/></clipPath><clipPath id="ls14"><rect x="-86" y="-39.56" width="172" height="8.34"/></clipPath><clipPath id="ls15"><rect x="-86" y="-31.82" width="172" height="8.34"/></clipPath><clipPath id="ls16"><rect x="-86" y="-24.08" width="172" height="8.34"/></clipPath><clipPath id="ls17"><rect x="-86" y="-16.34" width="172" height="8.34"/></clipPath><clipPath id="ls18"><rect x="-86" y="-8.60" width="172" height="8.34"/></clipPath><clipPath id="ls19"><rect x="-86" y="-0.86" width="172" height="8.34"/></clipPath><clipPath id="ls110"><rect x="-86" y="6.88" width="172" height="8.34"/></clipPath><clipPath id="ls111"><rect x="-86" y="14.62" width="172" height="8.34"/></clipPath><clipPath id="ls20"><rect x="-86" y="-70.52" width="172" height="8.34"/></clipPath><clipPath id="ls21"><rect x="-86" y="-62.78" width="172" height="8.34"/></clipPath><clipPath id="ls22"><rect x="-86" y="-55.04" width="172" height="8.34"/></clipPath><clipPath id="ls23"><rect x="-86" y="-47.30" width="172" height="8.34"/></clipPath><clipPath id="ls24"><rect x="-86" y="-39.56" width="172" height="8.34"/></clipPath><clipPath id="ls25"><rect x="-86" y="-31.82" width="172" height="8.34"/></clipPath><clipPath id="ls26"><rect x="-86" y="-24.08" width="172" height="8.34"/></clipPath><clipPath id="ls27"><rect x="-86" y="-16.34" width="172" height="8.34"/></clipPath><clipPath id="ls28"><rect x="-86" y="-8.60" width="172" height="8.34"/></clipPath><clipPath id="ls29"><rect x="-86" y="-0.86" width="172" height="8.34"/></clipPath><clipPath id="ls210"><rect x="-86" y="6.88" width="172" height="8.34"/></clipPath><clipPath id="ls211"><rect x="-86" y="14.62" width="172" height="8.34"/></clipPath><clipPath id="ls30"><rect x="-86" y="-70.52" width="172" height="8.34"/></clipPath><clipPath id="ls31"><rect x="-86" y="-62.78" width="172" height="8.34"/></clipPath><clipPath id="ls32"><rect x="-86" y="-55.04" width="172" height="8.34"/></clipPath><clipPath id="ls33"><rect x="-86" y="-47.30" width="172" height="8.34"/></clipPath><clipPath id="ls34"><rect x="-86" y="-39.56" width="172" height="8.34"/></clipPath><clipPath id="ls35"><rect x="-86" y="-31.82" width="172" height="8.34"/></clipPath><clipPath id="ls36"><rect x="-86" y="-24.08" width="172" height="8.34"/></clipPath><clipPath id="ls37"><rect x="-86" y="-16.34" width="172" height="8.34"/></clipPath><clipPath id="ls38"><rect x="-86" y="-8.60" width="172" height="8.34"/></clipPath><clipPath id="ls39"><rect x="-86" y="-0.86" width="172" height="8.34"/></clipPath><clipPath id="ls310"><rect x="-86" y="6.88" width="172" height="8.34"/></clipPath><clipPath id="ls311"><rect x="-86" y="14.62" width="172" height="8.34"/></clipPath><clipPath id="ls40"><rect x="-86" y="-70.52" width="172" height="8.34"/></clipPath><clipPath id="ls41"><rect x="-86" y="-62.78" width="172" height="8.34"/></clipPath><clipPath id="ls42"><rect x="-86" y="-55.04" width="172" height="8.34"/></clipPath><clipPath id="ls43"><rect x="-86" y="-47.30" width="172" height="8.34"/></clipPath><clipPath id="ls44"><rect x="-86" y="-39.56" width="172" height="8.34"/></clipPath><clipPath id="ls45"><rect x="-86" y="-31.82" width="172" height="8.34"/></clipPath><clipPath id="ls46"><rect x="-86" y="-24.08" width="172" height="8.34"/></clipPath><clipPath id="ls47"><rect x="-86" y="-16.34" width="172" height="8.34"/></clipPath><clipPath id="ls48"><rect x="-86" y="-8.60" width="172" height="8.34"/></clipPath><clipPath id="ls49"><rect x="-86" y="-0.86" width="172" height="8.34"/></clipPath><clipPath id="ls410"><rect x="-86" y="6.88" width="172" height="8.34"/></clipPath><clipPath id="ls411"><rect x="-86" y="14.62" width="172" height="8.34"/></clipPath></defs><rect x="110" y="120" width="380" height="380" rx="22" fill="#dde9ef" stroke="#241c15" stroke-width="14" stroke-linejoin="round"/><defs><clipPath id="l"><path d="M110 120 H490 L570 290 a54.00 54.00 0 0 1 -108.00 0 a54.00 54.00 0 0 1 -108.00 0 a54.00 54.00 0 0 1 -108.00 0 a54.00 54.00 0 0 1 -108.00 0 a54.00 54.00 0 0 1 -108.00 0 Z"/></clipPath></defs><g clip-path="url(#l)"><rect x="10" y="115" width="580" height="255" fill="#fbf3e6"/><polygon points="112.4,115 187.4,115 115.4,370 -7.6,370" fill="#c9552f"/> <polygon points="262.5,115 337.5,115 361.5,370 238.5,370" fill="#c9552f"/> <polygon points="412.6,115 487.6,115 607.6,370 484.6,370" fill="#c9552f"/></g><path d="M110 120 H490 L570 290 a54.00 54.00 0 0 1 -108.00 0 a54.00 54.00 0 0 1 -108.00 0 a54.00 54.00 0 0 1 -108.00 0 a54.00 54.00 0 0 1 -108.00 0 a54.00 54.00 0 0 1 -108.00 0 Z" fill="none" stroke="#241c15" stroke-width="14" stroke-linejoin="round"/><g transform="translate(88.9,277.1) skewX(-20.63)"><g clip-path="url(#ls00)" transform="scale(1.0125,1)"><text text-anchor="middle" font-family="-apple-system,BlinkMacSystemFont,Helvetica,Arial,sans-serif" font-weight="800" font-size="86" fill="#fbf3e6">w</text></g></g><g transform="translate(88.9,277.1) skewX(-20.63)"><g clip-path="url(#ls01)" transform="scale(1.0375,1)"><text text-anchor="middle" font-family="-apple-system,BlinkMacSystemFont,Helvetica,Arial,sans-serif" font-weight="800" font-size="86" fill="#fbf3e6">w</text></g></g><g transform="translate(88.9,277.1) skewX(-20.63)"><g clip-path="url(#ls02)" transform="scale(1.0625,1)"><text text-anchor="middle" font-family="-apple-system,BlinkMacSystemFont,Helvetica,Arial,sans-serif" font-weight="800" font-size="86" fill="#fbf3e6">w</text></g></g><g transform="translate(88.9,277.1) skewX(-20.63)"><g clip-path="url(#ls03)" transform="scale(1.0875,1)"><text text-anchor="middle" font-family="-apple-system,BlinkMacSystemFont,Helvetica,Arial,sans-serif" font-weight="800" font-size="86" fill="#fbf3e6">w</text></g></g><g transform="translate(88.9,277.1) skewX(-20.63)"><g clip-path="url(#ls04)" transform="scale(1.1125,1)"><text text-anchor="middle" font-family="-apple-system,BlinkMacSystemFont,Helvetica,Arial,sans-serif" font-weight="800" font-size="86" fill="#fbf3e6">w</text></g></g><g transform="translate(88.9,277.1) skewX(-20.63)"><g clip-path="url(#ls05)" transform="scale(1.1375,1)"><text text-anchor="middle" font-family="-apple-system,BlinkMacSystemFont,Helvetica,Arial,sans-serif" font-weight="800" font-size="86" fill="#fbf3e6">w</text></g></g><g transform="translate(88.9,277.1) skewX(-20.63)"><g clip-path="url(#ls06)" transform="scale(1.1625,1)"><text text-anchor="middle" font-family="-apple-system,BlinkMacSystemFont,Helvetica,Arial,sans-serif" font-weight="800" font-size="86" fill="#fbf3e6">w</text></g></g><g transform="translate(88.9,277.1) skewX(-20.63)"><g clip-path="url(#ls07)" transform="scale(1.1875,1)"><text text-anchor="middle" font-family="-apple-system,BlinkMacSystemFont,Helvetica,Arial,sans-serif" font-weight="800" font-size="86" fill="#fbf3e6">w</text></g></g><g transform="translate(88.9,277.1) skewX(-20.63)"><g clip-path="url(#ls08)" transform="scale(1.2125,1)"><text text-anchor="middle" font-family="-apple-system,BlinkMacSystemFont,Helvetica,Arial,sans-serif" font-weight="800" font-size="86" fill="#fbf3e6">w</text></g></g><g transform="translate(88.9,277.1) skewX(-20.63)"><g clip-path="url(#ls09)" transform="scale(1.2375,1)"><text text-anchor="middle" font-family="-apple-system,BlinkMacSystemFont,Helvetica,Arial,sans-serif" font-weight="800" font-size="86" fill="#fbf3e6">w</text></g></g><g transform="translate(88.9,277.1) skewX(-20.63)"><g clip-path="url(#ls010)" transform="scale(1.2625,1)"><text text-anchor="middle" font-family="-apple-system,BlinkMacSystemFont,Helvetica,Arial,sans-serif" font-weight="800" font-size="86" fill="#fbf3e6">w</text></g></g><g transform="translate(88.9,277.1) skewX(-20.63)"><g clip-path="url(#ls011)" transform="scale(1.2875,1)"><text text-anchor="middle" font-family="-apple-system,BlinkMacSystemFont,Helvetica,Arial,sans-serif" font-weight="800" font-size="86" fill="#fbf3e6">w</text></g></g><g transform="translate(194.4,277.1) skewX(-10.66)"><g clip-path="url(#ls10)" transform="scale(1.0125,1)"><text text-anchor="middle" font-family="-apple-system,BlinkMacSystemFont,Helvetica,Arial,sans-serif" font-weight="800" font-size="86" fill="#241c15">a</text></g></g><g transform="translate(194.4,277.1) skewX(-10.66)"><g clip-path="url(#ls11)" transform="scale(1.0375,1)"><text text-anchor="middle" font-family="-apple-system,BlinkMacSystemFont,Helvetica,Arial,sans-serif" font-weight="800" font-size="86" fill="#241c15">a</text></g></g><g transform="translate(194.4,277.1) skewX(-10.66)"><g clip-path="url(#ls12)" transform="scale(1.0625,1)"><text text-anchor="middle" font-family="-apple-system,BlinkMacSystemFont,Helvetica,Arial,sans-serif" font-weight="800" font-size="86" fill="#241c15">a</text></g></g><g transform="translate(194.4,277.1) skewX(-10.66)"><g clip-path="url(#ls13)" transform="scale(1.0875,1)"><text text-anchor="middle" font-family="-apple-system,BlinkMacSystemFont,Helvetica,Arial,sans-serif" font-weight="800" font-size="86" fill="#241c15">a</text></g></g><g transform="translate(194.4,277.1) skewX(-10.66)"><g clip-path="url(#ls14)" transform="scale(1.1125,1)"><text text-anchor="middle" font-family="-apple-system,BlinkMacSystemFont,Helvetica,Arial,sans-serif" font-weight="800" font-size="86" fill="#241c15">a</text></g></g><g transform="translate(194.4,277.1) skewX(-10.66)"><g clip-path="url(#ls15)" transform="scale(1.1375,1)"><text text-anchor="middle" font-family="-apple-system,BlinkMacSystemFont,Helvetica,Arial,sans-serif" font-weight="800" font-size="86" fill="#241c15">a</text></g></g><g transform="translate(194.4,277.1) skewX(-10.66)"><g clip-path="url(#ls16)" transform="scale(1.1625,1)"><text text-anchor="middle" font-family="-apple-system,BlinkMacSystemFont,Helvetica,Arial,sans-serif" font-weight="800" font-size="86" fill="#241c15">a</text></g></g><g transform="translate(194.4,277.1) skewX(-10.66)"><g clip-path="url(#ls17)" transform="scale(1.1875,1)"><text text-anchor="middle" font-family="-apple-system,BlinkMacSystemFont,Helvetica,Arial,sans-serif" font-weight="800" font-size="86" fill="#241c15">a</text></g></g><g transform="translate(194.4,277.1) skewX(-10.66)"><g clip-path="url(#ls18)" transform="scale(1.2125,1)"><text text-anchor="middle" font-family="-apple-system,BlinkMacSystemFont,Helvetica,Arial,sans-serif" font-weight="800" font-size="86" fill="#241c15">a</text></g></g><g transform="translate(194.4,277.1) skewX(-10.66)"><g clip-path="url(#ls19)" transform="scale(1.2375,1)"><text text-anchor="middle" font-family="-apple-system,BlinkMacSystemFont,Helvetica,Arial,sans-serif" font-weight="800" font-size="86" fill="#241c15">a</text></g></g><g transform="translate(194.4,277.1) skewX(-10.66)"><g clip-path="url(#ls110)" transform="scale(1.2625,1)"><text text-anchor="middle" font-family="-apple-system,BlinkMacSystemFont,Helvetica,Arial,sans-serif" font-weight="800" font-size="86" fill="#241c15">a</text></g></g><g transform="translate(194.4,277.1) skewX(-10.66)"><g clip-path="url(#ls111)" transform="scale(1.2875,1)"><text text-anchor="middle" font-family="-apple-system,BlinkMacSystemFont,Helvetica,Arial,sans-serif" font-weight="800" font-size="86" fill="#241c15">a</text></g></g><g transform="translate(300.0,277.1) skewX(0.00)"><g clip-path="url(#ls20)" transform="scale(1.0125,1)"><text text-anchor="middle" font-family="-apple-system,BlinkMacSystemFont,Helvetica,Arial,sans-serif" font-weight="800" font-size="86" fill="#fbf3e6">a</text></g></g><g transform="translate(300.0,277.1) skewX(0.00)"><g clip-path="url(#ls21)" transform="scale(1.0375,1)"><text text-anchor="middle" font-family="-apple-system,BlinkMacSystemFont,Helvetica,Arial,sans-serif" font-weight="800" font-size="86" fill="#fbf3e6">a</text></g></g><g transform="translate(300.0,277.1) skewX(0.00)"><g clip-path="url(#ls22)" transform="scale(1.0625,1)"><text text-anchor="middle" font-family="-apple-system,BlinkMacSystemFont,Helvetica,Arial,sans-serif" font-weight="800" font-size="86" fill="#fbf3e6">a</text></g></g><g transform="translate(300.0,277.1) skewX(0.00)"><g clip-path="url(#ls23)" transform="scale(1.0875,1)"><text text-anchor="middle" font-family="-apple-system,BlinkMacSystemFont,Helvetica,Arial,sans-serif" font-weight="800" font-size="86" fill="#fbf3e6">a</text></g></g><g transform="translate(300.0,277.1) skewX(0.00)"><g clip-path="url(#ls24)" transform="scale(1.1125,1)"><text text-anchor="middle" font-family="-apple-system,BlinkMacSystemFont,Helvetica,Arial,sans-serif" font-weight="800" font-size="86" fill="#fbf3e6">a</text></g></g><g transform="translate(300.0,277.1) skewX(0.00)"><g clip-path="url(#ls25)" transform="scale(1.1375,1)"><text text-anchor="middle" font-family="-apple-system,BlinkMacSystemFont,Helvetica,Arial,sans-serif" font-weight="800" font-size="86" fill="#fbf3e6">a</text></g></g><g transform="translate(300.0,277.1) skewX(0.00)"><g clip-path="url(#ls26)" transform="scale(1.1625,1)"><text text-anchor="middle" font-family="-apple-system,BlinkMacSystemFont,Helvetica,Arial,sans-serif" font-weight="800" font-size="86" fill="#fbf3e6">a</text></g></g><g transform="translate(300.0,277.1) skewX(0.00)"><g clip-path="url(#ls27)" transform="scale(1.1875,1)"><text text-anchor="middle" font-family="-apple-system,BlinkMacSystemFont,Helvetica,Arial,sans-serif" font-weight="800" font-size="86" fill="#fbf3e6">a</text></g></g><g transform="translate(300.0,277.1) skewX(0.00)"><g clip-path="url(#ls28)" transform="scale(1.2125,1)"><text text-anchor="middle" font-family="-apple-system,BlinkMacSystemFont,Helvetica,Arial,sans-serif" font-weight="800" font-size="86" fill="#fbf3e6">a</text></g></g><g transform="translate(300.0,277.1) skewX(0.00)"><g clip-path="url(#ls29)" transform="scale(1.2375,1)"><text text-anchor="middle" font-family="-apple-system,BlinkMacSystemFont,Helvetica,Arial,sans-serif" font-weight="800" font-size="86" fill="#fbf3e6">a</text></g></g><g transform="translate(300.0,277.1) skewX(0.00)"><g clip-path="url(#ls210)" transform="scale(1.2625,1)"><text text-anchor="middle" font-family="-apple-system,BlinkMacSystemFont,Helvetica,Arial,sans-serif" font-weight="800" font-size="86" fill="#fbf3e6">a</text></g></g><g transform="translate(300.0,277.1) skewX(0.00)"><g clip-path="url(#ls211)" transform="scale(1.2875,1)"><text text-anchor="middle" font-family="-apple-system,BlinkMacSystemFont,Helvetica,Arial,sans-serif" font-weight="800" font-size="86" fill="#fbf3e6">a</text></g></g><g transform="translate(405.6,277.1) skewX(10.66)"><g clip-path="url(#ls30)" transform="scale(1.0125,1)"><text text-anchor="middle" font-family="-apple-system,BlinkMacSystemFont,Helvetica,Arial,sans-serif" font-weight="800" font-size="86" fill="#241c15">r</text></g></g><g transform="translate(405.6,277.1) skewX(10.66)"><g clip-path="url(#ls31)" transform="scale(1.0375,1)"><text text-anchor="middle" font-family="-apple-system,BlinkMacSystemFont,Helvetica,Arial,sans-serif" font-weight="800" font-size="86" fill="#241c15">r</text></g></g><g transform="translate(405.6,277.1) skewX(10.66)"><g clip-path="url(#ls32)" transform="scale(1.0625,1)"><text text-anchor="middle" font-family="-apple-system,BlinkMacSystemFont,Helvetica,Arial,sans-serif" font-weight="800" font-size="86" fill="#241c15">r</text></g></g><g transform="translate(405.6,277.1) skewX(10.66)"><g clip-path="url(#ls33)" transform="scale(1.0875,1)"><text text-anchor="middle" font-family="-apple-system,BlinkMacSystemFont,Helvetica,Arial,sans-serif" font-weight="800" font-size="86" fill="#241c15">r</text></g></g><g transform="translate(405.6,277.1) skewX(10.66)"><g clip-path="url(#ls34)" transform="scale(1.1125,1)"><text text-anchor="middle" font-family="-apple-system,BlinkMacSystemFont,Helvetica,Arial,sans-serif" font-weight="800" font-size="86" fill="#241c15">r</text></g></g><g transform="translate(405.6,277.1) skewX(10.66)"><g clip-path="url(#ls35)" transform="scale(1.1375,1)"><text text-anchor="middle" font-family="-apple-system,BlinkMacSystemFont,Helvetica,Arial,sans-serif" font-weight="800" font-size="86" fill="#241c15">r</text></g></g><g transform="translate(405.6,277.1) skewX(10.66)"><g clip-path="url(#ls36)" transform="scale(1.1625,1)"><text text-anchor="middle" font-family="-apple-system,BlinkMacSystemFont,Helvetica,Arial,sans-serif" font-weight="800" font-size="86" fill="#241c15">r</text></g></g><g transform="translate(405.6,277.1) skewX(10.66)"><g clip-path="url(#ls37)" transform="scale(1.1875,1)"><text text-anchor="middle" font-family="-apple-system,BlinkMacSystemFont,Helvetica,Arial,sans-serif" font-weight="800" font-size="86" fill="#241c15">r</text></g></g><g transform="translate(405.6,277.1) skewX(10.66)"><g clip-path="url(#ls38)" transform="scale(1.2125,1)"><text text-anchor="middle" font-family="-apple-system,BlinkMacSystemFont,Helvetica,Arial,sans-serif" font-weight="800" font-size="86" fill="#241c15">r</text></g></g><g transform="translate(405.6,277.1) skewX(10.66)"><g clip-path="url(#ls39)" transform="scale(1.2375,1)"><text text-anchor="middle" font-family="-apple-system,BlinkMacSystemFont,Helvetica,Arial,sans-serif" font-weight="800" font-size="86" fill="#241c15">r</text></g></g><g transform="translate(405.6,277.1) skewX(10.66)"><g clip-path="url(#ls310)" transform="scale(1.2625,1)"><text text-anchor="middle" font-family="-apple-system,BlinkMacSystemFont,Helvetica,Arial,sans-serif" font-weight="800" font-size="86" fill="#241c15">r</text></g></g><g transform="translate(405.6,277.1) skewX(10.66)"><g clip-path="url(#ls311)" transform="scale(1.2875,1)"><text text-anchor="middle" font-family="-apple-system,BlinkMacSystemFont,Helvetica,Arial,sans-serif" font-weight="800" font-size="86" fill="#241c15">r</text></g></g><g transform="translate(511.1,277.1) skewX(20.63)"><g clip-path="url(#ls40)" transform="scale(1.0125,1)"><text text-anchor="middle" font-family="-apple-system,BlinkMacSystemFont,Helvetica,Arial,sans-serif" font-weight="800" font-size="86" fill="#fbf3e6">k</text></g></g><g transform="translate(511.1,277.1) skewX(20.63)"><g clip-path="url(#ls41)" transform="scale(1.0375,1)"><text text-anchor="middle" font-family="-apple-system,BlinkMacSystemFont,Helvetica,Arial,sans-serif" font-weight="800" font-size="86" fill="#fbf3e6">k</text></g></g><g transform="translate(511.1,277.1) skewX(20.63)"><g clip-path="url(#ls42)" transform="scale(1.0625,1)"><text text-anchor="middle" font-family="-apple-system,BlinkMacSystemFont,Helvetica,Arial,sans-serif" font-weight="800" font-size="86" fill="#fbf3e6">k</text></g></g><g transform="translate(511.1,277.1) skewX(20.63)"><g clip-path="url(#ls43)" transform="scale(1.0875,1)"><text text-anchor="middle" font-family="-apple-system,BlinkMacSystemFont,Helvetica,Arial,sans-serif" font-weight="800" font-size="86" fill="#fbf3e6">k</text></g></g><g transform="translate(511.1,277.1) skewX(20.63)"><g clip-path="url(#ls44)" transform="scale(1.1125,1)"><text text-anchor="middle" font-family="-apple-system,BlinkMacSystemFont,Helvetica,Arial,sans-serif" font-weight="800" font-size="86" fill="#fbf3e6">k</text></g></g><g transform="translate(511.1,277.1) skewX(20.63)"><g clip-path="url(#ls45)" transform="scale(1.1375,1)"><text text-anchor="middle" font-family="-apple-system,BlinkMacSystemFont,Helvetica,Arial,sans-serif" font-weight="800" font-size="86" fill="#fbf3e6">k</text></g></g><g transform="translate(511.1,277.1) skewX(20.63)"><g clip-path="url(#ls46)" transform="scale(1.1625,1)"><text text-anchor="middle" font-family="-apple-system,BlinkMacSystemFont,Helvetica,Arial,sans-serif" font-weight="800" font-size="86" fill="#fbf3e6">k</text></g></g><g transform="translate(511.1,277.1) skewX(20.63)"><g clip-path="url(#ls47)" transform="scale(1.1875,1)"><text text-anchor="middle" font-family="-apple-system,BlinkMacSystemFont,Helvetica,Arial,sans-serif" font-weight="800" font-size="86" fill="#fbf3e6">k</text></g></g><g transform="translate(511.1,277.1) skewX(20.63)"><g clip-path="url(#ls48)" transform="scale(1.2125,1)"><text text-anchor="middle" font-family="-apple-system,BlinkMacSystemFont,Helvetica,Arial,sans-serif" font-weight="800" font-size="86" fill="#fbf3e6">k</text></g></g><g transform="translate(511.1,277.1) skewX(20.63)"><g clip-path="url(#ls49)" transform="scale(1.2375,1)"><text text-anchor="middle" font-family="-apple-system,BlinkMacSystemFont,Helvetica,Arial,sans-serif" font-weight="800" font-size="86" fill="#fbf3e6">k</text></g></g><g transform="translate(511.1,277.1) skewX(20.63)"><g clip-path="url(#ls410)" transform="scale(1.2625,1)"><text text-anchor="middle" font-family="-apple-system,BlinkMacSystemFont,Helvetica,Arial,sans-serif" font-weight="800" font-size="86" fill="#fbf3e6">k</text></g></g><g transform="translate(511.1,277.1) skewX(20.63)"><g clip-path="url(#ls411)" transform="scale(1.2875,1)"><text text-anchor="middle" font-family="-apple-system,BlinkMacSystemFont,Helvetica,Arial,sans-serif" font-weight="800" font-size="86" fill="#fbf3e6">k</text></g></g><text x="300" y="442" text-anchor="middle" font-family="-apple-system,BlinkMacSystemFont,Helvetica,Arial,sans-serif" font-weight="800" letter-spacing="-0.02em" font-size="86" fill="#c9552f">stee</text></svg>