<svg xmlns="http://www.w3.org/2000/svg" viewBox="0 0 600 600" width="600" height="600"><rect width="600" height="600" fill="#fbf3e6"/><rect x="110" y="110" width="380" height="410" rx="24" fill="#dde9ef" stroke="#241c15" stroke-width="14" stroke-linejoin="round"/><defs><clipPath id="aw"><path d="M110 110 H490 L530 160 a46.00 46.00 0 0 1 -92.00 0 a46.00 46.00 0 0 1 -92.00 0 a46.00 46.00 0 0 1 -92.00 0 a46.00 46.00 0 0 1 -92.00 0 a46.00 46.00 0 0 1 -92.00 0 Z"/></clipPath></defs><rect x="110" y="70" width="380" height="40" rx="14" fill="#e8a93d" stroke="#241c15" stroke-width="14" stroke-linejoin="round"/><g clip-path="url(#aw)"><rect x="50" y="105" width="500" height="135" fill="#fbf3e6"/><polygon points="114.0,105 188.4,105 123.6,240 6.0,240" fill="#c9552f"/> <polygon points="262.8,105 337.2,105 358.8,240 241.2,240" fill="#c9552f"/> <polygon points="411.6,105 486.0,105 594.0,240 476.4,240" fill="#c9552f"/></g><path d="M110 110 H490 L530 160 a46.00 46.00 0 0 1 -92.00 0 a46.00 46.00 0 0 1 -92.00 0 a46.00 46.00 0 0 1 -92.00 0 a46.00 46.00 0 0 1 -92.00 0 a46.00 46.00 0 0 1 -92.00 0 Z" fill="none" stroke="#241c15" stroke-width="14" stroke-linejoin="round"/><text x="300" y="425" text-anchor="middle" font-family="-apple-system,BlinkMacSystemFont,Helvetica,Arial,sans-serif" font-weight="800" letter-spacing="-0.03em" font-size="230" fill="#241c15">w<tspan fill="#c9552f">s</tspan></text></svg>